<svg xmlns="http://www.w3.org/2000/svg" width="80" height="80" viewBox="0 0 80 80">
  <defs>
    <linearGradient id="bg-about" x1="0" y1="0" x2="0" y2="1">
      <stop offset="0" stop-color="#a5b4fc"></stop>
      <stop offset="1" stop-color="#3730a3"></stop>
    </linearGradient>
    <linearGradient id="hl-about" x1="0" y1="0" x2="0" y2="1">
      <stop offset="0" stop-color="white" stop-opacity="0.38"></stop>
      <stop offset="0.5" stop-color="white" stop-opacity="0"></stop>
    </linearGradient>
    <radialGradient id="gloss-about" cx="0.5" cy="0" r="0.9">
      <stop offset="0" stop-color="white" stop-opacity="0.25"></stop>
      <stop offset="1" stop-color="white" stop-opacity="0"></stop>
    </radialGradient>
  </defs>
  <rect width="80" height="80" rx="22" fill="url(#bg-about)"></rect>
  <rect width="80" height="80" rx="22" fill="url(#gloss-about)"></rect>
  <rect width="80" height="80" rx="22" fill="url(#hl-about)"></rect>
  
  <defs>
    <linearGradient id="card-grad" x1="0" y1="0" x2="0" y2="1">
      <stop offset="0" stop-color="#ffffff"></stop>
      <stop offset="1" stop-color="#e2e8f0"></stop>
    </linearGradient>
    <linearGradient id="photo-grad" x1="0" y1="0" x2="0" y2="1">
      <stop offset="0" stop-color="#7dd3fc"></stop>
      <stop offset="1" stop-color="#0369a1"></stop>
    </linearGradient>
  </defs>
  <rect x="35" y="14" width="10" height="8" rx="1.5" fill="#cbd5e1" stroke="rgba(0,0,0,0.35)" stroke-width="0.4"></rect>
  <rect x="36" y="15" width="8" height="1.4" rx="0.5" fill="rgba(255,255,255,0.8)"></rect>
  <ellipse cx="40" cy="19" rx="2.4" ry="1" fill="none" stroke="rgba(0,0,0,0.4)" stroke-width="0.5"></ellipse>
  <g style="filter: drop-shadow(0 2px 3px rgba(0,0,0,0.35))">
    <rect x="14" y="22" width="52" height="42" rx="4" fill="url(#card-grad)" stroke="rgba(0,0,0,0.25)" stroke-width="0.5"></rect>
    <rect x="14" y="22" width="52" height="6" rx="4" fill="#3730a3"></rect>
    <rect x="14" y="26" width="52" height="2" fill="#3730a3"></rect>
  </g>
  <rect x="19" y="32" width="18" height="22" rx="1.5" fill="url(#photo-grad)" stroke="rgba(0,0,0,0.3)" stroke-width="0.4"></rect>
  <circle cx="28" cy="41" r="3.2" fill="#fde68a"></circle>
  <path d="M21 56 Q21 48 28 48 Q35 48 35 56 Z" fill="#fde68a"></path>
  <rect x="41" y="33" width="21" height="2.4" rx="1" fill="#3730a3"></rect>
  <rect x="41" y="38" width="17" height="1.8" rx="0.8" fill="rgba(55,48,163,0.55)"></rect>
  <rect x="41" y="44" width="19" height="1.6" rx="0.7" fill="rgba(100,116,139,0.55)"></rect>
  <rect x="41" y="48" width="15" height="1.6" rx="0.7" fill="rgba(100,116,139,0.45)"></rect>
  <g>
    <line x1="42" y1="54" x2="42" y2="60" stroke="#1e293b" stroke-width="1"></line>
    <line x1="44" y1="54" x2="44" y2="60" stroke="#1e293b" stroke-width="0.5"></line>
    <line x1="45.5" y1="54" x2="45.5" y2="60" stroke="#1e293b" stroke-width="0.5"></line>
    <line x1="47" y1="54" x2="47" y2="60" stroke="#1e293b" stroke-width="0.5"></line>
    <line x1="48.5" y1="54" x2="48.5" y2="60" stroke="#1e293b" stroke-width="1"></line>
    <line x1="50" y1="54" x2="50" y2="60" stroke="#1e293b" stroke-width="0.5"></line>
    <line x1="52" y1="54" x2="52" y2="60" stroke="#1e293b" stroke-width="0.5"></line>
    <line x1="54" y1="54" x2="54" y2="60" stroke="#1e293b" stroke-width="0.5"></line>
    <line x1="55.5" y1="54" x2="55.5" y2="60" stroke="#1e293b" stroke-width="1"></line>
    <line x1="57" y1="54" x2="57" y2="60" stroke="#1e293b" stroke-width="0.5"></line>
    <line x1="59" y1="54" x2="59" y2="60" stroke="#1e293b" stroke-width="0.5"></line>
    <line x1="60.5" y1="54" x2="60.5" y2="60" stroke="#1e293b" stroke-width="0.5"></line>
    <line x1="62" y1="54" x2="62" y2="60" stroke="#1e293b" stroke-width="1"></line>
  </g>
  <rect x="0.5" y="0.5" width="79" height="79" rx="21.5" fill="none" stroke="rgba(255,255,255,0.25)" stroke-width="1"></rect>
  <rect x="0" y="0" width="80" height="80" rx="22" fill="none" stroke="rgba(0,0,0,0.18)" stroke-width="0.6"></rect>
</svg>