<svg xmlns="http://www.w3.org/2000/svg" width="80" height="80" viewBox="0 0 80 80">
  <defs>
    <linearGradient id="bg-folder" x1="0" y1="0" x2="0" y2="1">
      <stop offset="0" stop-color="#fde047"></stop>
      <stop offset="1" stop-color="#d97706"></stop>
    </linearGradient>
    <linearGradient id="hl-folder" x1="0" y1="0" x2="0" y2="1">
      <stop offset="0" stop-color="white" stop-opacity="0.38"></stop>
      <stop offset="0.5" stop-color="white" stop-opacity="0"></stop>
    </linearGradient>
    <radialGradient id="gloss-folder" cx="0.5" cy="0" r="0.9">
      <stop offset="0" stop-color="white" stop-opacity="0.25"></stop>
      <stop offset="1" stop-color="white" stop-opacity="0"></stop>
    </radialGradient>
  </defs>
  <rect width="80" height="80" rx="22" fill="url(#bg-folder)"></rect>
  <rect width="80" height="80" rx="22" fill="url(#gloss-folder)"></rect>
  <rect width="80" height="80" rx="22" fill="url(#hl-folder)"></rect>
  
  <defs>
    <linearGradient id="bg-folder-front" x1="0" y1="0" x2="0" y2="1">
      <stop offset="0" stop-color="#fef3c7"></stop>
      <stop offset="1" stop-color="#f59e0b"></stop>
    </linearGradient>
  </defs>
  <path d="M18 26 Q18 22 22 22 L32 22 L38 28 L58 28 Q62 28 62 32 L62 36 L18 36 Z" fill="#fbbf24" stroke="rgba(0,0,0,0.1)" stroke-width="0.5"></path>
  <path d="M16 34 Q16 30 20 30 L60 30 Q64 30 64 34 L62 58 Q61.5 62 57.5 62 L22.5 62 Q18.5 62 18 58 Z" fill="url(#bg-folder-front)"></path>
  <path d="M16 34 Q16 30 20 30 L60 30 Q64 30 64 34 L62 58 Q61.5 62 57.5 62 L22.5 62 Q18.5 62 18 58 Z" fill="none" stroke="rgba(255,255,255,0.5)" stroke-width="1"></path>
  <rect x="0.5" y="0.5" width="79" height="79" rx="21.5" fill="none" stroke="rgba(255,255,255,0.25)" stroke-width="1"></rect>
  <rect x="0" y="0" width="80" height="80" rx="22" fill="none" stroke="rgba(0,0,0,0.18)" stroke-width="0.6"></rect>
</svg>