<svg xmlns="http://www.w3.org/2000/svg" width="80" height="80" viewBox="0 0 80 80">
  <defs>
    <linearGradient id="bg-resume" x1="0" y1="0" x2="0" y2="1">
      <stop offset="0" stop-color="#dbeafe"></stop>
      <stop offset="1" stop-color="#60a5fa"></stop>
    </linearGradient>
    <linearGradient id="hl-resume" x1="0" y1="0" x2="0" y2="1">
      <stop offset="0" stop-color="white" stop-opacity="0.38"></stop>
      <stop offset="0.5" stop-color="white" stop-opacity="0"></stop>
    </linearGradient>
    <radialGradient id="gloss-resume" cx="0.5" cy="0" r="0.9">
      <stop offset="0" stop-color="white" stop-opacity="0.25"></stop>
      <stop offset="1" stop-color="white" stop-opacity="0"></stop>
    </radialGradient>
  </defs>
  <rect width="80" height="80" rx="22" fill="url(#bg-resume)"></rect>
  <rect width="80" height="80" rx="22" fill="url(#gloss-resume)"></rect>
  <rect width="80" height="80" rx="22" fill="url(#hl-resume)"></rect>
  
  <defs>
    <linearGradient id="piece-red" x1="0" y1="0" x2="0" y2="1">
      <stop offset="0" stop-color="#fca5a5"></stop><stop offset="1" stop-color="#dc2626"></stop>
    </linearGradient>
    <linearGradient id="piece-yellow" x1="0" y1="0" x2="0" y2="1">
      <stop offset="0" stop-color="#fde68a"></stop><stop offset="1" stop-color="#d97706"></stop>
    </linearGradient>
    <linearGradient id="piece-green" x1="0" y1="0" x2="0" y2="1">
      <stop offset="0" stop-color="#86efac"></stop><stop offset="1" stop-color="#16a34a"></stop>
    </linearGradient>
    <linearGradient id="slot-dark" x1="0" y1="0" x2="0" y2="1">
      <stop offset="0" stop-color="rgba(30,58,138,0.55)"></stop>
      <stop offset="1" stop-color="rgba(15,23,42,0.7)"></stop>
    </linearGradient>
  </defs>
  <path d="M 40 14 L 66 14 L 66 40 L 57 40 C 57 46, 49 46, 49 40 L 40 40 L 40 31 C 46 31, 46 23, 40 23 Z" fill="url(#slot-dark)" stroke="rgba(15,23,42,0.5)" stroke-width="0.6"></path>
  <path d="M 41 15 L 65 15 L 65 39 L 58 39 C 58 45, 50 45, 50 39 L 41 39 L 41 32 C 47 32, 47 22, 41 22 Z" fill="none" stroke="rgba(0,0,0,0.35)" stroke-width="0.8"></path>
  <g style="filter: drop-shadow(1px 1.5px 1.5px rgba(0,0,0,0.4))">
    <path d="M 14 14 L 40 14 L 40 23 C 46 23, 46 31, 40 31 L 40 40 L 31 40 C 31 46, 23 46, 23 40 L 14 40 Z" fill="url(#piece-red)" stroke="rgba(120,20,20,0.6)" stroke-width="0.6"></path>
    <path d="M 16 16 L 38 16" stroke="rgba(255,255,255,0.55)" stroke-width="1" stroke-linecap="round"></path>
  </g>
  <g style="filter: drop-shadow(1px 1.5px 1.5px rgba(0,0,0,0.4))">
    <path d="M 14 40 L 23 40 C 23 46, 31 46, 31 40 L 40 40 L 40 49 C 46 49, 46 57, 40 57 L 40 66 L 14 66 Z" fill="url(#piece-yellow)" stroke="rgba(146,64,14,0.6)" stroke-width="0.6"></path>
    <path d="M 16 64 L 38 64" stroke="rgba(0,0,0,0.15)" stroke-width="0.6"></path>
  </g>
  <g style="filter: drop-shadow(1px 1.5px 1.5px rgba(0,0,0,0.4))">
    <path d="M 40 40 L 49 40 C 49 46, 57 46, 57 40 L 66 40 L 66 66 L 40 66 L 40 57 C 46 57, 46 49, 40 49 Z" fill="url(#piece-green)" stroke="rgba(20,83,45,0.6)" stroke-width="0.6"></path>
    <path d="M 60 42 L 64 42" stroke="rgba(255,255,255,0.55)" stroke-width="1" stroke-linecap="round"></path>
  </g>
  <rect x="0.5" y="0.5" width="79" height="79" rx="21.5" fill="none" stroke="rgba(255,255,255,0.25)" stroke-width="1"></rect>
  <rect x="0" y="0" width="80" height="80" rx="22" fill="none" stroke="rgba(0,0,0,0.18)" stroke-width="0.6"></rect>
</svg>